 <svg  version="1.0" xmlns="http://www.w3.org/2000/svg"  width="300.000000pt" height="311.000000pt" viewBox="0 0 300.000000 311.000000"  preserveAspectRatio="xMidYMid meet">  <g transform="translate(0.000000,311.000000) scale(0.100000,-0.100000)" fill="#1b3168" stroke="none"> <path d="M539 2731 c-75 -24 -141 -73 -183 -135 -70 -103 -67 -50 -64 -1071 l3 -920 26 -56 c37 -79 90 -133 167 -171 l67 -33 940 0 940 0 57 28 c74 36 130 94 170 175 l33 67 0 925 0 925 -23 57 c-32 80 -99 150 -180 190 l-67 33 -915 2 c-860 2 -918 1 -971 -16z m1862 -238 c61 -36 59 3 59 -947 0 -944 2 -915 -56 -953 -27 -17 -75 -18 -889 -21 -589 -2 -872 0 -897 8 -20 6 -48 24 -62 41 l-26 31 0 884 c0 621 3 892 11 907 6 12 23 32 37 44 l27 23 883 0 c815 0 886 -1 913 -17z"/> <path d="M1660 2256 c-184 -50 -288 -192 -306 -417 l-7 -79 -122 0 c-110 0 -125 -2 -156 -23 -62 -41 -75 -100 -36 -158 35 -52 58 -59 195 -59 l124 0 -4 -172 c-3 -152 -5 -177 -23 -208 -29 -49 -73 -70 -158 -79 -84 -8 -121 -27 -144 -75 -21 -45 -11 -95 27 -131 74 -71 304 -26 417 82 52 50 99 146 112 233 6 36 11 129 11 207 l0 141 139 4 c132 3 141 4 165 27 39 37 52 88 33 134 -27 64 -62 77 -211 77 l-129 0 5 69 c7 90 36 150 87 179 32 18 55 22 131 22 91 0 92 0 126 34 29 29 34 41 34 79 0 53 -27 93 -76 113 -41 17 -172 17 -234 0z"/> </g> </svg> 