<svg width="15" height="15" viewBox="0 0 15 15" fill="none" xmlns="http://www.w3.org/2000/svg">
<path d="M8.33332 7.5H10.8333L7.49999 10.5L4.16666 7.5H6.66666V4.5H8.33332V7.5ZM9.99999 1.5H1.66666V13.5H13.3333V4.5H9.99999V1.5ZM0 0.744C0 0.333 0.3725 0 0.832499 0H10.8333L15 3.75V14.2448C15.0007 14.3432 14.98 14.4409 14.9388 14.5322C14.8976 14.6234 14.8369 14.7065 14.76 14.7766C14.6832 14.8468 14.5918 14.9026 14.4909 14.9409C14.3901 14.9792 14.2819 14.9993 14.1725 15H0.827499C0.608648 14.9986 0.399181 14.9198 0.244348 14.7806C0.0895148 14.6414 0.00174554 14.453 0 14.256V0.744Z" fill="#03053D"/>
</svg>
