<svg width="21" height="21" viewBox="0 0 21 21" fill="none" xmlns="http://www.w3.org/2000/svg">
    <path d="M10.5894 11.3115C11.1416 11.3115 11.5894 10.8638 11.5894 10.3115C11.5894 9.75924 11.1416 9.31152 10.5894 9.31152C10.0371 9.31152 9.58936 9.75924 9.58936 10.3115C9.58936 10.8638 10.0371 11.3115 10.5894 11.3115Z" stroke="#757575" stroke-width="2" stroke-linecap="round" stroke-linejoin="round"/>
    <path d="M18.7892 18.5114C20.8292 16.4814 18.8092 11.1514 14.2892 6.61141C9.74924 2.09141 4.41924 0.0714095 2.38924 2.11141C0.349242 4.14141 2.36924 9.47141 6.88924 14.0114C11.4292 18.5314 16.7592 20.5514 18.7892 18.5114Z" stroke="#757575" stroke-width="2" stroke-linecap="round" stroke-linejoin="round"/>
    <path d="M14.2892 14.0114C18.8092 9.47141 20.8292 4.14141 18.7892 2.11141C16.7592 0.0714095 11.4292 2.09141 6.88924 6.61141C2.36924 11.1514 0.349242 16.4814 2.38924 18.5114C4.41924 20.5514 9.74924 18.5314 14.2892 14.0114Z" stroke="#757575" stroke-width="2" stroke-linecap="round" stroke-linejoin="round"/>
</svg>
