<svg width="50" height="50" viewBox="0 0 50 50" fill="none" xmlns="http://www.w3.org/2000/svg">
<path d="M25 25C28.7888 25 32.4224 23.683 35.1015 21.3388C37.7806 18.9946 39.2857 15.8152 39.2857 12.5C39.2857 9.18479 37.7806 6.00537 35.1015 3.66117C32.4224 1.31696 28.7888 0 25 0C21.2112 0 17.5776 1.31696 14.8985 3.66117C12.2194 6.00537 10.7143 9.18479 10.7143 12.5C10.7143 15.8152 12.2194 18.9946 14.8985 21.3388C17.5776 23.683 21.2112 25 25 25ZM19.8996 29.6875C8.90625 29.6875 0 37.4805 0 47.0996C0 48.7012 1.48438 50 3.31473 50H46.6853C48.5156 50 50 48.7012 50 47.0996C50 37.4805 41.0938 29.6875 30.1004 29.6875H19.8996Z" fill="black"/>
</svg>
